<?xml version="1.0" encoding="UTF-8" standalone="no"?>
<!DOCTYPE svg PUBLIC "-//W3C//DTD SVG 1.1//EN" "http://www.w3.org/Graphics/SVG/1.1/DTD/svg11.dtd">
<svg width="100%" height="100%" viewBox="0 0 1023 786" version="1.1" xmlns="http://www.w3.org/2000/svg" xmlns:xlink="http://www.w3.org/1999/xlink" xml:space="preserve" xmlns:serif="http://www.serif.com/" style="fill-rule:evenodd;clip-rule:evenodd;stroke-linejoin:round;stroke-miterlimit:2;">
    <g transform="matrix(2.83552,0,0,2.83552,-806.001,-542.56)">
        <g transform="matrix(1,0,0,1,-88.65,-57.09)">
            <path d="M588.7,348.49C579.97,336.89 567.32,329.57 553.24,329.57C539.16,329.57 526.51,336.89 517.78,348.49C519.71,353.224 522.566,357.525 526.18,361.14C533.356,368.312 543.096,372.346 553.242,372.346C568.781,372.346 582.845,362.884 588.7,348.49Z" style="fill:rgb(12,150,255);fill-rule:nonzero;"/>
        </g>
        <g transform="matrix(1,0,0,1,-88.65,-57.09)">
            <path d="M513.17,355.28C512.548,355.013 511.958,354.677 511.41,354.28C510.581,353.601 509.918,352.743 509.47,351.77C509.947,350.791 510.194,349.716 510.194,348.627C510.194,344.689 506.953,341.447 503.014,341.447C499.075,341.447 495.834,344.689 495.834,348.627C495.834,350.438 496.519,352.183 497.75,353.51C498.251,354.042 498.823,354.503 499.45,354.88C500.264,355.351 500.927,356.045 501.36,356.88C502.178,358.532 503.305,360.012 504.68,361.24C506.091,362.45 507.614,363.522 509.23,364.44C507.006,370.735 505.745,377.329 505.49,384C502.904,384.044 500.338,384.458 497.87,385.23C496.606,385.623 495.414,386.217 494.34,386.99C494.051,386.955 493.761,386.935 493.47,386.93C493.47,386.93 493.47,386.93 493.47,386.93C489.526,386.93 486.28,390.176 486.28,394.12C486.28,398.064 489.526,401.31 493.47,401.31C496.458,401.31 499.149,399.447 500.2,396.65C500.778,395.038 502.212,393.878 503.91,393.65C504.524,393.576 505.142,393.536 505.76,393.53C506.619,402.939 509.538,412.045 514.31,420.2C510.07,423.49 507.46,427.08 506.36,431.06C506.155,431.174 505.963,431.311 505.79,431.47C505.489,431.706 505.208,431.967 504.95,432.25C503.748,433.571 503.082,435.295 503.082,437.081C503.082,441.019 506.323,444.261 510.262,444.261C514.201,444.261 517.442,441.019 517.442,437.081C517.442,436.234 517.292,435.394 517,434.6C516.333,432.829 516.796,430.821 518.17,429.52C518.65,429.07 519.17,428.59 519.87,428.06C527.98,437.53 537.63,443.6 549.68,444.32L549.68,380.07C533.75,379.2 519.87,368.83 513.17,355.28ZM613,387C612.709,387.004 612.419,387.024 612.13,387.06C611.045,386.304 609.856,385.711 608.6,385.3C606.132,384.525 603.566,384.111 600.98,384.07C600.702,377.405 599.442,370.817 597.24,364.52C598.856,363.602 600.379,362.53 601.79,361.32C603.209,360.022 604.375,358.473 605.23,356.75C605.631,356.002 606.248,355.392 607,355C609.259,353.73 610.662,351.332 610.662,348.741C610.662,344.802 607.42,341.561 603.482,341.561C599.543,341.561 596.302,344.802 596.302,348.741C596.302,349.81 596.54,350.865 597,351.83C596.56,352.807 595.895,353.667 595.06,354.34C594.499,354.804 593.911,355.234 593.3,355.63C586.6,369.17 572.73,379.25 556.82,380.12L556.82,444.43C568.82,443.71 578.53,437.61 586.63,428.17C587.26,428.67 587.79,429.12 588.24,429.54C589.672,430.868 590.17,432.936 589.5,434.77C589.21,435.562 589.061,436.398 589.061,437.241C589.061,441.18 592.303,444.421 596.241,444.421C600.18,444.421 603.421,441.18 603.421,437.241C603.421,435.469 602.765,433.758 601.58,432.44C601.322,432.157 601.041,431.896 600.74,431.66C600.41,431.4 600.17,431.25 600.17,431.25C599.07,427.25 596.47,423.68 592.17,420.39C596.942,412.235 599.861,403.129 600.72,393.72C601.312,393.727 601.903,393.767 602.49,393.84C604.222,394.064 605.7,395.216 606.34,396.84C607.417,399.583 610.077,401.397 613.024,401.397C616.796,401.397 619.957,398.425 620.19,394.66C620.196,394.537 620.199,394.413 620.199,394.289C620.199,390.324 616.965,387.049 613,387Z" style="fill:rgb(12,150,255);fill-rule:nonzero;"/>
        </g>
    </g>
</svg>
