<svg width="260" height="260" version="1.1" viewBox="0 0 260 260" xmlns="http://www.w3.org/2000/svg">
	<path d="m9.75 0h240.5c5.385 0 9.75 4.3652 9.75 9.75v240.5c0 5.385-4.365 9.75-9.75 9.75h-240.5c-5.3848 0-9.75-4.365-9.75-9.75v-240.5c0-5.3848 4.3652-9.75 9.75-9.75z" fill="#fff"/>
	<path d="m9.75 0h240.5c5.385 0 9.75 4.3652 9.75 9.75v240.5c0 5.385-4.365 9.75-9.75 9.75h-240.5c-5.3848 0-9.75-4.365-9.75-9.75v-240.5c0-5.3848 4.3652-9.75 9.75-9.75zm134.78 138.32v-21.324h-92.532v21.324h33.036v94.946h26.298v-94.946zm10.485 92.439c4.241 2.162 9.257 3.784 15.048 4.865 5.79 1.081 11.893 1.622 18.309 1.622 6.253 0 12.193-0.595 17.82-1.784 5.628-1.189 10.562-3.149 14.803-5.879s7.598-6.297 10.072-10.703 3.711-9.852 3.711-16.339c0-4.703-0.707-8.824-2.12-12.365-1.414-3.541-3.453-6.69-6.117-9.447s-5.859-5.23-9.583-7.419c-3.725-2.189-7.925-4.257-12.601-6.203-3.425-1.406-6.497-2.771-9.216-4.095-2.718-1.324-5.029-2.676-6.932-4.054-1.903-1.379-3.371-2.838-4.404-4.379-1.033-1.54-1.55-3.284-1.55-5.23 0-1.784 0.463-3.392 1.387-4.824 0.924-1.433 2.229-2.663 3.915-3.69 1.685-1.027 3.751-1.824 6.198-2.392 2.447-0.567 5.165-0.851 8.156-0.851 2.174 0 4.472 0.162 6.891 0.486 2.42 0.325 4.853 0.825 7.299 1.5 2.447 0.676 4.826 1.527 7.137 2.555 2.311 1.027 4.445 2.216 6.402 3.567v-24.244c-3.969-1.514-8.305-2.636-13.008-3.365-4.704-0.73-10.1-1.095-16.189-1.095-6.199 0-12.071 0.662-17.617 1.987-5.546 1.324-10.425 3.392-14.639 6.203s-7.544 6.392-9.991 10.743c-2.447 4.352-3.67 9.555-3.67 15.609 0 7.731 2.243 14.326 6.729 19.785 4.485 5.46 11.295 10.082 20.43 13.866 3.588 1.46 6.932 2.892 10.031 4.298 3.099 1.405 5.777 2.865 8.033 4.378 2.257 1.514 4.037 3.162 5.342 4.946s1.958 3.811 1.958 6.082c0 1.676-0.408 3.23-1.224 4.662-0.815 1.433-2.052 2.676-3.71 3.73-1.659 1.054-3.725 1.879-6.199 2.473-2.474 0.595-5.369 0.892-8.686 0.892-5.654 0-11.254-0.986-16.8-2.959s-10.684-4.933-15.415-8.879z" fill="#3178c6"/>
</svg>
