<svg width="319" height="44" viewBox="0 0 319 44" fill="none" xmlns="http://www.w3.org/2000/svg">
<path d="M303.056 30.2916H307.812L306.559 34.681H299.399C298.792 34.681 298.334 34.4612 298.025 34.0217C297.831 33.7441 297.733 33.426 297.733 33.0675C297.733 32.8709 297.762 32.6627 297.819 32.4429L303.314 13.0639C303.52 12.3584 303.755 11.8379 304.018 11.5025C304.281 11.1555 304.567 10.93 304.876 10.8259C305.197 10.7218 305.523 10.6697 305.855 10.6697H313.376L312.122 15.0591H307.366L305.907 20.1944H310.56L308.07 24.2194H304.773L303.056 30.2916Z" fill="#F32324"/>
<path d="M292.325 15.0591L291.552 17.7829C291.529 17.8638 291.518 17.939 291.518 18.0084C291.518 18.1819 291.581 18.3323 291.707 18.4595L297.356 23.6296C297.608 23.9071 297.734 24.2252 297.734 24.5838C297.734 24.7457 297.711 24.9134 297.665 25.0869L295.553 32.4776C295.461 32.8362 295.301 33.1832 295.072 33.5186C294.855 33.854 294.563 34.1316 294.196 34.3513C293.83 34.5711 293.384 34.681 292.857 34.681H284.993C284.501 34.681 284.175 34.519 284.014 34.1952C283.923 34.0101 283.877 33.8193 283.877 33.6227C283.877 33.4839 283.9 33.3393 283.946 33.1889L285.663 27.1341H289.337L288.444 30.2916H292.72L293.664 26.9085C293.676 26.8623 293.681 26.816 293.681 26.7698C293.681 26.6772 293.647 26.5905 293.578 26.5095L287.689 21.1139C287.494 20.9057 287.397 20.6628 287.397 20.3853C287.397 20.2696 287.414 20.1424 287.449 20.0036L289.509 12.7343C289.715 11.9941 290.007 11.4678 290.385 11.1555C290.774 10.8317 291.237 10.6697 291.775 10.6697H299.451C300.057 10.6697 300.509 10.8953 300.807 11.3463C300.967 11.5892 301.047 11.9015 301.047 12.2832C301.047 12.6186 300.984 13.0061 300.859 13.4456L299.674 17.6267H295.999L296.72 15.0591H292.325Z" fill="#F32324"/>
<path d="M281.679 22.4672L281.799 22.5539C281.834 22.5655 281.88 22.5828 281.937 22.606C282.086 22.71 282.269 22.8431 282.486 23.005C282.704 23.1553 282.91 23.3231 283.104 23.5081C283.299 23.6932 283.436 23.8724 283.516 24.0459C283.608 24.3004 283.654 24.5664 283.654 24.844C283.654 24.9365 283.642 25.0984 283.62 25.3298C283.597 25.5495 283.522 25.8849 283.396 26.336L281.027 34.681H276.889L279.859 24.2194H276.202L273.231 34.681H269.093L275.91 10.6697H285.182C285.674 10.6697 286.086 10.7912 286.418 11.0341C286.75 11.2654 286.962 11.6528 287.054 12.1965C287.076 12.3237 287.088 12.4625 287.088 12.6128C287.088 13.0986 286.991 13.6827 286.796 14.3651L285.251 19.7954C285.193 19.9689 285.102 20.1829 284.976 20.4373C284.862 20.6802 284.713 20.9173 284.53 21.1486C284.346 21.3684 284.129 21.5419 283.877 21.6691C283.282 21.9351 282.767 22.1317 282.332 22.259L281.679 22.4672ZM280.992 20.1944L282.452 15.0591H278.795L277.335 20.1944H280.992Z" fill="#F32324"/>
<path d="M263.359 30.2916H268.115L266.861 34.681H259.701C259.095 34.681 258.637 34.4612 258.328 34.0217C258.133 33.7441 258.036 33.426 258.036 33.0675C258.036 32.8709 258.064 32.6627 258.122 32.4429L263.616 13.0639C263.822 12.3584 264.057 11.8379 264.32 11.5025C264.583 11.1555 264.869 10.93 265.179 10.8259C265.499 10.7218 265.825 10.6697 266.157 10.6697H273.678L272.424 15.0591H267.668L266.209 20.1944H270.862L268.372 24.2194H265.076L263.359 30.2916Z" fill="#F32324"/>
<path d="M254.052 21.6344L258.431 10.6697H262.689L252.73 34.681H248.867L248.403 10.6697H253.194L252.696 24.5838L254.052 21.6344Z" fill="#F32324"/>
<path d="M237.26 30.2916H242.016L240.762 34.681H233.602C232.996 34.681 232.538 34.4612 232.229 34.0217C232.034 33.7441 231.937 33.426 231.937 33.0675C231.937 32.8709 231.965 32.6627 232.023 32.4429L237.517 13.0639C237.723 12.3584 237.958 11.8379 238.221 11.5025C238.484 11.1555 238.771 10.93 239.08 10.8259C239.4 10.7218 239.726 10.6697 240.058 10.6697H247.579L246.326 15.0591H241.569L240.11 20.1944H244.763L242.273 24.2194H238.977L237.26 30.2916Z" fill="#F32324"/>
<path d="M231.765 10.6697L226.202 30.2916H230.958L229.705 34.681H222.407C221.835 34.681 221.406 34.4728 221.119 34.0564C220.936 33.8019 220.845 33.5128 220.845 33.1889C220.845 32.9923 220.873 32.7899 220.931 32.5817L227.146 10.6697H231.765Z" fill="#F32324"/>
<path d="M221.394 10.6697H226.305L218.098 19.8821L219.214 34.681H214.303L213.513 25.0175L212.397 26.2666L210.01 34.681H205.872L212.689 10.6697H216.827L214.801 17.8176L221.394 10.6697Z" fill="#F32324"/>
<path d="M196.738 30.2916H200.962L201.854 27.1341H205.786L204.464 31.749C204.258 32.4892 203.984 33.0733 203.64 33.5012C203.297 33.9292 202.908 34.2357 202.473 34.4207C202.049 34.5942 201.608 34.681 201.15 34.681H193.853C193.395 34.681 193 34.5942 192.668 34.4207C192.348 34.2357 192.13 33.9292 192.016 33.5012C191.981 33.3624 191.964 33.2005 191.964 33.0154C191.964 32.6685 192.033 32.2463 192.17 31.749L197.356 13.515C197.562 12.7979 197.831 12.2312 198.163 11.8148C198.495 11.3984 198.867 11.1035 199.279 10.93C199.702 10.7565 200.137 10.6697 200.584 10.6697H208.036C208.482 10.6697 208.86 10.7565 209.169 10.93C209.489 11.1035 209.701 11.3984 209.804 11.8148C209.839 11.9536 209.856 12.1097 209.856 12.2832C209.856 12.6302 209.787 13.0408 209.65 13.515L208.413 17.887H204.481L205.271 15.0591H201.047L196.738 30.2916Z" fill="#F32324"/>
<path d="M185.611 30.2916H190.367L189.114 34.681H181.954C181.347 34.681 180.889 34.4612 180.58 34.0217C180.386 33.7441 180.288 33.426 180.288 33.0675C180.288 32.8709 180.317 32.6627 180.374 32.4429L185.869 13.0639C186.075 12.3584 186.31 11.8379 186.573 11.5025C186.836 11.1555 187.122 10.93 187.431 10.8259C187.752 10.7218 188.078 10.6697 188.41 10.6697H195.931L194.677 15.0591H189.921L188.462 20.1944H193.115L190.625 24.2194H187.328L185.611 30.2916Z" fill="#F32324"/>
<path d="M165.556 34.681L172.373 10.6697H181.834C182.521 10.6697 183.036 10.9126 183.379 11.3984C183.597 11.7107 183.705 12.0692 183.705 12.474C183.705 12.6938 183.671 12.9309 183.602 13.1854L181.181 21.7038C180.987 22.3978 180.575 22.9934 179.945 23.4908C179.327 23.9765 178.674 24.2194 177.988 24.2194H172.665L169.694 34.681H165.556ZM177.473 20.1944L178.932 15.0591H175.258L173.798 20.1944H177.473Z" fill="#F32324"/>
<path d="M157.503 10.288C157.469 10.4037 157.452 10.5078 157.452 10.6003C157.452 10.8432 157.538 11.0514 157.709 11.2249L165.934 18.7718C166.289 19.1303 166.466 19.5525 166.466 20.0383C166.466 20.2349 166.432 20.4489 166.363 20.6802L163.41 31.1244C163.17 31.9571 162.815 32.6338 162.345 33.1542C161.876 33.6747 161.344 34.0622 160.749 34.3166C160.153 34.5595 159.53 34.681 158.877 34.681H149.708C149.056 34.681 148.478 34.5537 147.974 34.2993C147.47 34.0448 147.115 33.6169 146.909 33.0154C146.829 32.7726 146.789 32.5008 146.789 32.2C146.789 31.749 146.875 31.2227 147.047 30.6213L149.004 23.751H154.31L152.507 29.8752H158.534L160.474 23.2479C160.508 23.1438 160.525 23.0397 160.525 22.9356C160.525 22.6927 160.428 22.4845 160.234 22.311L152.078 15.1805C151.711 14.822 151.528 14.3998 151.528 13.914C151.528 13.7058 151.562 13.4861 151.631 13.2548L154.344 3.73007C154.527 3.04767 154.813 2.4231 155.203 1.85636C155.603 1.28962 156.153 0.838542 156.851 0.503125C157.549 0.167709 158.465 0 159.598 0H168.389C169.065 0 169.637 0.150359 170.106 0.451078C170.587 0.751797 170.902 1.23757 171.051 1.90841C171.097 2.10503 171.119 2.32479 171.119 2.56767C171.119 3.14598 170.999 3.83995 170.759 4.64957L169.231 10.0452H163.925L165.436 4.80572H159.1L157.503 10.288ZM158.001 40.9614C159.684 40.9614 161.292 40.7243 162.826 40.25C164.36 39.7874 165.78 39.1339 167.084 38.2896H171.051C169.334 39.8857 167.359 41.1348 165.127 42.037C162.906 42.9392 160.537 43.3902 158.019 43.3902C155.363 43.3902 152.873 42.8929 150.549 41.8982C148.237 40.9151 146.205 39.5503 144.454 37.8038C142.703 36.0689 141.335 34.0564 140.35 31.7663C139.366 29.4762 138.868 27.0069 138.856 24.3582C138.879 22.5076 139.125 20.7612 139.595 19.1188C140.167 17.1178 141.3 14.9087 142.994 12.4914C144.7 10.0741 147.35 8.13675 150.944 6.67942L150.069 9.76757C147.424 11.2133 145.513 12.8904 144.334 14.7988C143.155 16.6957 142.359 18.3554 141.947 19.778C141.535 21.2238 141.323 22.7505 141.312 24.3582C141.312 26.6714 141.741 28.8285 142.6 30.8294C143.47 32.8188 144.666 34.5711 146.188 36.0862C147.722 37.613 149.496 38.8043 151.511 39.6602C153.537 40.5276 155.701 40.9614 158.001 40.9614Z" fill="#F32324"/>
<path d="M121.841 30.2916H126.597L125.343 34.681H118.183C117.577 34.681 117.119 34.4612 116.81 34.0217C116.615 33.7441 116.518 33.426 116.518 33.0675C116.518 32.8709 116.546 32.6627 116.604 32.4429L122.098 13.0639C122.304 12.3584 122.539 11.8379 122.802 11.5025C123.065 11.1555 123.352 10.93 123.661 10.8259C123.981 10.7218 124.307 10.6697 124.639 10.6697H132.16L130.907 15.0591H126.15L124.691 20.1944H129.344L126.854 24.2194H123.558L121.841 30.2916Z" fill="#F32324"/>
<path d="M113.685 20.1944L116.398 10.6697H120.536L113.719 34.681H109.581L112.552 24.2194H108.894L105.924 34.681H101.786L108.602 10.6697H112.74L110.027 20.1944H113.685Z" fill="#F32324"/>
<path d="M92.2047 34.681L97.7679 15.0591H94.5913L95.8448 10.6697H106.799L105.546 15.0591H102.387L96.8235 34.681H92.2047Z" fill="#F32324"/>
<path d="M66.5865 34.681L73.4032 10.6697H82.6408C83.133 10.6697 83.5508 10.7854 83.8942 11.0167C84.2376 11.248 84.4551 11.6239 84.5467 12.1444C84.581 12.2948 84.5982 12.4625 84.5982 12.6475C84.5982 13.0755 84.5066 13.596 84.3235 14.209L79.4643 31.3499C79.1323 32.5065 78.6287 33.3509 77.9533 33.8829C77.2779 34.4149 76.4995 34.681 75.6181 34.681H66.5865ZM75.6353 30.2916L79.9451 15.0591H76.2878L71.978 30.2916H75.6353Z" fill="#F32324"/>
<path d="M63.8736 23.6296L67.5481 10.6697H71.1538L64.3372 34.681H60.7315L60.7658 23.6642L60.5769 21.1833L59.6669 23.8551L56.5934 34.681H52.9876L59.8043 10.6697H63.6504L63.8736 23.6296Z" fill="#F32324"/>
<path d="M40.8826 34.681C40.3102 34.681 39.8809 34.4728 39.5948 34.0564C39.4231 33.8135 39.3372 33.5244 39.3372 33.1889C39.3372 32.9461 39.3773 32.68 39.4574 32.3909L44.9347 13.0813C45.1751 12.2254 45.5529 11.6124 46.068 11.2423C46.5831 10.8606 47.1268 10.6697 47.6992 10.6697H55.4773C56.0497 10.6697 56.4847 10.8548 56.7823 11.2249C56.9425 11.4331 57.0227 11.7165 57.0227 12.075C57.0227 12.3642 56.9712 12.6996 56.8681 13.0813L51.3908 32.3909C51.1847 33.0964 50.8184 33.6574 50.2919 34.0737C49.7768 34.4786 49.2331 34.681 48.6607 34.681H40.8826ZM47.8537 30.2916L52.1635 15.0591H48.5062L44.1964 30.2916H47.8537Z" fill="#F32324"/>
<path d="M40.419 10.6697H44.8489L36.4526 24.0633L33.4478 34.681H28.829L31.8338 24.1153L31.0611 10.6697H35.4911L35.6971 18.6503L40.419 10.6697Z" fill="#F32324"/>
<path d="M20.0549 30.2916H24.8111L23.5577 34.681H16.3977C15.791 34.681 15.3331 34.4612 15.024 34.0217C14.8294 33.7441 14.7321 33.426 14.7321 33.0675C14.7321 32.8709 14.7608 32.6627 14.818 32.4429L20.3125 13.0639C20.5185 12.3584 20.7532 11.8379 21.0165 11.5025C21.2798 11.1555 21.5659 10.93 21.875 10.8259C22.1955 10.7218 22.5217 10.6697 22.8537 10.6697H30.3743L29.1209 15.0591H24.3647L22.9052 20.1944H27.5584L25.0687 24.2194H21.772L20.0549 30.2916Z" fill="#F32324"/>
<path d="M14.4231 24.2194C14.5032 24.5201 14.5433 24.7977 14.5433 25.0522C14.5433 25.1331 14.5318 25.2719 14.5089 25.4686C14.486 25.6652 14.4402 25.8849 14.3716 26.1278L13.0151 30.9335C12.7404 31.8935 12.4027 32.6453 12.0021 33.1889C11.6014 33.7325 11.1664 34.12 10.6971 34.3513C10.2278 34.5711 9.7413 34.681 9.23764 34.681H0L6.81662 10.6697H15.9856C16.4892 10.6697 16.9185 10.797 17.2733 11.0514C17.6282 11.2943 17.8514 11.6875 17.943 12.2312C17.9773 12.3815 17.9945 12.5492 17.9945 12.7343C17.9945 13.1969 17.8972 13.7579 17.7026 14.4171L16.2431 19.5352C16.2088 19.6739 16.1287 19.8879 16.0027 20.1771C15.8768 20.4662 15.6994 20.7612 15.4705 21.0619C15.253 21.351 14.9782 21.5766 14.6463 21.7385C14.3143 21.8773 13.9881 22.0045 13.6676 22.1202C13.3471 22.2243 13.0838 22.3052 12.8777 22.3631L12.5343 22.4498L12.7919 22.606C12.9522 22.71 13.1467 22.8488 13.3757 23.0223C13.6046 23.1843 13.8164 23.3693 14.011 23.5775C14.2056 23.7857 14.3429 23.9997 14.4231 24.2194ZM11.9162 20.1944L13.3757 15.0591H9.70124L8.24176 20.1944H11.9162ZM9.06593 30.2916L10.783 24.2194H7.10852L5.39148 30.2916H9.06593Z" fill="#F32324"/>
<path d="M308.331 30.2916H313.087L311.834 34.681H304.674C304.067 34.681 303.609 34.4612 303.3 34.0217C303.106 33.7441 303.008 33.426 303.008 33.0675C303.008 32.8709 303.037 32.6627 303.094 32.4429L308.589 13.0639C308.795 12.3584 309.029 11.8379 309.293 11.5025C309.556 11.1555 309.842 10.93 310.151 10.8259C310.472 10.7218 310.798 10.6697 311.13 10.6697H318.65L317.397 15.0591H312.641L311.181 20.1944H315.834L313.345 24.2194H310.048L308.331 30.2916Z" fill="#313F9B"/>
<path d="M297.6 15.0591L296.827 17.7829C296.804 17.8638 296.793 17.939 296.793 18.0084C296.793 18.1819 296.856 18.3323 296.981 18.4595L302.63 23.6296C302.882 23.9071 303.008 24.2252 303.008 24.5838C303.008 24.7457 302.985 24.9134 302.94 25.0869L300.828 32.4776C300.736 32.8362 300.576 33.1832 300.347 33.5186C300.129 33.854 299.837 34.1316 299.471 34.3513C299.105 34.5711 298.658 34.681 298.132 34.681H290.268C289.776 34.681 289.449 34.519 289.289 34.1952C289.198 34.0101 289.152 33.8193 289.152 33.6227C289.152 33.4839 289.175 33.3393 289.22 33.1889L290.937 27.1341H294.612L293.719 30.2916H297.994L298.939 26.9085C298.95 26.8623 298.956 26.816 298.956 26.7698C298.956 26.6772 298.922 26.5905 298.853 26.5095L292.964 21.1139C292.769 20.9057 292.672 20.6628 292.672 20.3853C292.672 20.2696 292.689 20.1424 292.723 20.0036L294.784 12.7343C294.99 11.9941 295.282 11.4678 295.659 11.1555C296.049 10.8317 296.512 10.6697 297.05 10.6697H304.725C305.332 10.6697 305.784 10.8953 306.082 11.3463C306.242 11.5892 306.322 11.9015 306.322 12.2832C306.322 12.6186 306.259 13.0061 306.133 13.4456L304.948 17.6267H301.274L301.995 15.0591H297.6Z" fill="#313F9B"/>
<path d="M286.954 22.4672L287.074 22.5539C287.108 22.5655 287.154 22.5828 287.212 22.606C287.36 22.71 287.543 22.8431 287.761 23.005C287.978 23.1553 288.184 23.3231 288.379 23.5081C288.574 23.6932 288.711 23.8724 288.791 24.0459C288.883 24.3004 288.929 24.5664 288.929 24.844C288.929 24.9365 288.917 25.0984 288.894 25.3298C288.871 25.5495 288.797 25.8849 288.671 26.336L286.301 34.681H282.163L285.134 24.2194H281.477L278.506 34.681H274.368L281.185 10.6697H290.457C290.949 10.6697 291.361 10.7912 291.693 11.0341C292.025 11.2654 292.237 11.6528 292.328 12.1965C292.351 12.3237 292.363 12.4625 292.363 12.6128C292.363 13.0986 292.265 13.6827 292.071 14.3651L290.525 19.7954C290.468 19.9689 290.377 20.1829 290.251 20.4373C290.136 20.6802 289.987 20.9173 289.804 21.1486C289.621 21.3684 289.404 21.5419 289.152 21.6691C288.557 21.9351 288.041 22.1317 287.606 22.259L286.954 22.4672ZM286.267 20.1944L287.727 15.0591H284.069L282.61 20.1944H286.267Z" fill="#313F9B"/>
<path d="M268.633 30.2916H273.389L272.136 34.681H264.976C264.369 34.681 263.911 34.4612 263.602 34.0217C263.408 33.7441 263.31 33.426 263.31 33.0675C263.31 32.8709 263.339 32.6627 263.396 32.4429L268.891 13.0639C269.097 12.3584 269.332 11.8379 269.595 11.5025C269.858 11.1555 270.144 10.93 270.453 10.8259C270.774 10.7218 271.1 10.6697 271.432 10.6697H278.953L277.699 15.0591H272.943L271.484 20.1944H276.137L273.647 24.2194H270.35L268.633 30.2916Z" fill="#313F9B"/>
<path d="M259.327 21.6344L263.705 10.6697H267.964L258.005 34.681H254.141L253.678 10.6697H258.468L257.97 24.5838L259.327 21.6344Z" fill="#313F9B"/>
<path d="M242.534 30.2916H247.291L246.037 34.681H238.877C238.27 34.681 237.812 34.4612 237.503 34.0217C237.309 33.7441 237.212 33.426 237.212 33.0675C237.212 32.8709 237.24 32.6627 237.297 32.4429L242.792 13.0639C242.998 12.3584 243.233 11.8379 243.496 11.5025C243.759 11.1555 244.045 10.93 244.354 10.8259C244.675 10.7218 245.001 10.6697 245.333 10.6697H252.854L251.6 15.0591H246.844L245.385 20.1944H250.038L247.548 24.2194H244.251L242.534 30.2916Z" fill="#313F9B"/>
<path d="M237.04 10.6697L231.477 30.2916H236.233L234.979 34.681H227.682C227.11 34.681 226.68 34.4728 226.394 34.0564C226.211 33.8019 226.12 33.5128 226.12 33.1889C226.12 32.9923 226.148 32.7899 226.205 32.5817L232.421 10.6697H237.04Z" fill="#313F9B"/>
<path d="M226.669 10.6697H231.58L223.372 19.8821L224.488 34.681H219.578L218.788 25.0175L217.672 26.2666L215.285 34.681H211.147L217.964 10.6697H222.102L220.076 17.8176L226.669 10.6697Z" fill="#313F9B"/>
<path d="M202.012 30.2916H206.236L207.129 27.1341H211.061L209.739 31.749C209.533 32.4892 209.258 33.0733 208.915 33.5012C208.571 33.9292 208.182 34.2357 207.747 34.4207C207.324 34.5942 206.883 34.681 206.425 34.681H199.128C198.67 34.681 198.275 34.5942 197.943 34.4207C197.623 34.2357 197.405 33.9292 197.291 33.5012C197.256 33.3624 197.239 33.2005 197.239 33.0154C197.239 32.6685 197.308 32.2463 197.445 31.749L202.631 13.515C202.837 12.7979 203.106 12.2312 203.438 11.8148C203.769 11.3984 204.142 11.1035 204.554 10.93C204.977 10.7565 205.412 10.6697 205.859 10.6697H213.31C213.757 10.6697 214.135 10.7565 214.444 10.93C214.764 11.1035 214.976 11.3984 215.079 11.8148C215.113 11.9536 215.131 12.1097 215.131 12.2832C215.131 12.6302 215.062 13.0408 214.924 13.515L213.688 17.887H209.756L210.546 15.0591H206.322L202.012 30.2916Z" fill="#313F9B"/>
<path d="M190.886 30.2916H195.642L194.389 34.681H187.229C186.622 34.681 186.164 34.4612 185.855 34.0217C185.66 33.7441 185.563 33.426 185.563 33.0675C185.563 32.8709 185.592 32.6627 185.649 32.4429L191.144 13.0639C191.35 12.3584 191.584 11.8379 191.848 11.5025C192.111 11.1555 192.397 10.93 192.706 10.8259C193.027 10.7218 193.353 10.6697 193.685 10.6697H201.205L199.952 15.0591H195.196L193.736 20.1944H198.389L195.9 24.2194H192.603L190.886 30.2916Z" fill="#313F9B"/>
<path d="M170.831 34.681L177.648 10.6697H187.109C187.795 10.6697 188.31 10.9126 188.654 11.3984C188.871 11.7107 188.98 12.0692 188.98 12.474C188.98 12.6938 188.946 12.9309 188.877 13.1854L186.456 21.7038C186.261 22.3978 185.849 22.9934 185.22 23.4908C184.602 23.9765 183.949 24.2194 183.262 24.2194H177.94L174.969 34.681H170.831ZM182.747 20.1944L184.207 15.0591H180.532L179.073 20.1944H182.747Z" fill="#313F9B"/>
<path d="M162.778 10.288C162.744 10.4037 162.727 10.5078 162.727 10.6003C162.727 10.8432 162.813 11.0514 162.984 11.2249L171.209 18.7718C171.564 19.1303 171.741 19.5525 171.741 20.0383C171.741 20.2349 171.707 20.4489 171.638 20.6802L168.685 31.1244C168.444 31.9571 168.09 32.6338 167.62 33.1542C167.151 33.6747 166.619 34.0622 166.023 34.3166C165.428 34.5595 164.804 34.681 164.152 34.681H154.983C154.33 34.681 153.752 34.5537 153.249 34.2993C152.745 34.0448 152.39 33.6169 152.184 33.0154C152.104 32.7726 152.064 32.5008 152.064 32.2C152.064 31.749 152.15 31.2227 152.321 30.6213L154.279 23.751H159.585L157.782 29.8752H163.808L165.749 23.2479C165.783 23.1438 165.8 23.0397 165.8 22.9356C165.8 22.6927 165.703 22.4845 165.508 22.311L157.352 15.1805C156.986 14.822 156.803 14.3998 156.803 13.914C156.803 13.7058 156.837 13.4861 156.906 13.2548L159.619 3.73007C159.802 3.04767 160.088 2.4231 160.477 1.85636C160.878 1.28962 161.427 0.838542 162.126 0.503125C162.824 0.167709 163.74 0 164.873 0H173.664C174.34 0 174.912 0.150359 175.381 0.451078C175.862 0.751797 176.177 1.23757 176.326 1.90841C176.371 2.10503 176.394 2.32479 176.394 2.56767C176.394 3.14598 176.274 3.83995 176.034 4.64957L174.506 10.0452H169.2L170.711 4.80572H164.375L162.778 10.288ZM163.276 40.9614C164.959 40.9614 166.567 40.7243 168.101 40.25C169.635 39.7874 171.054 39.1339 172.359 38.2896H176.326C174.609 39.8857 172.634 41.1348 170.402 42.037C168.181 42.9392 165.812 43.3902 163.293 43.3902C160.638 43.3902 158.148 42.8929 155.824 41.8982C153.512 40.9151 151.48 39.5503 149.729 37.8038C147.977 36.0689 146.609 34.0564 145.625 31.7663C144.641 29.4762 144.143 27.0069 144.131 24.3582C144.154 22.5076 144.4 20.7612 144.87 19.1188C145.442 17.1178 146.575 14.9087 148.269 12.4914C149.975 10.0741 152.625 8.13675 156.219 6.67942L155.343 9.76757C152.699 11.2133 150.788 12.8904 149.609 14.7988C148.43 16.6957 147.634 18.3554 147.222 19.778C146.81 21.2238 146.598 22.7505 146.587 24.3582C146.587 26.6714 147.016 28.8285 147.874 30.8294C148.744 32.8188 149.941 34.5711 151.463 36.0862C152.997 37.613 154.771 38.8043 156.786 39.6602C158.812 40.5276 160.975 40.9614 163.276 40.9614Z" fill="#313F9B"/>
<path d="M127.115 30.2916H131.872L130.618 34.681H123.458C122.851 34.681 122.394 34.4612 122.084 34.0217C121.89 33.7441 121.793 33.426 121.793 33.0675C121.793 32.8709 121.821 32.6627 121.878 32.4429L127.373 13.0639C127.579 12.3584 127.814 11.8379 128.077 11.5025C128.34 11.1555 128.626 10.93 128.935 10.8259C129.256 10.7218 129.582 10.6697 129.914 10.6697H137.435L136.181 15.0591H131.425L129.966 20.1944H134.619L132.129 24.2194H128.832L127.115 30.2916Z" fill="#313F9B"/>
<path d="M118.959 20.1944L121.672 10.6697H125.81L118.994 34.681H114.856L117.826 24.2194H114.169L111.198 34.681H107.06L113.877 10.6697H118.015L115.302 20.1944H118.959Z" fill="#313F9B"/>
<path d="M97.4794 34.681L103.043 15.0591H99.8661L101.119 10.6697H112.074L110.821 15.0591H107.661L102.098 34.681H97.4794Z" fill="#313F9B"/>
<path d="M71.8613 34.681L78.6779 10.6697H87.9155C88.4077 10.6697 88.8256 10.7854 89.169 11.0167C89.5124 11.248 89.7299 11.6239 89.8214 12.1444C89.8558 12.2948 89.8729 12.4625 89.8729 12.6475C89.8729 13.0755 89.7814 13.596 89.5982 14.209L84.739 31.3499C84.4071 32.5065 83.9034 33.3509 83.228 33.8829C82.5527 34.4149 81.7743 34.681 80.8929 34.681H71.8613ZM80.91 30.2916L85.2198 15.0591H81.5625L77.2527 30.2916H80.91Z" fill="#313F9B"/>
<path d="M69.1484 23.6296L72.8228 10.6697H76.4286L69.612 34.681H66.0062L66.0405 23.6642L65.8517 21.1833L64.9416 23.8551L61.8681 34.681H58.2624L65.079 10.6697H68.9251L69.1484 23.6296Z" fill="#313F9B"/>
<path d="M46.1573 34.681C45.5849 34.681 45.1557 34.4728 44.8695 34.0564C44.6978 33.8135 44.6119 33.5244 44.6119 33.1889C44.6119 32.9461 44.652 32.68 44.7321 32.3909L50.2095 13.0813C50.4499 12.2254 50.8276 11.6124 51.3427 11.2423C51.8578 10.8606 52.4016 10.6697 52.9739 10.6697H60.7521C61.3244 10.6697 61.7594 10.8548 62.057 11.2249C62.2173 11.4331 62.2974 11.7165 62.2974 12.075C62.2974 12.3642 62.2459 12.6996 62.1429 13.0813L56.6655 32.3909C56.4595 33.0964 56.0932 33.6574 55.5666 34.0737C55.0515 34.4786 54.5078 34.681 53.9354 34.681H46.1573ZM53.1284 30.2916L57.4382 15.0591H53.7809L49.4712 30.2916H53.1284Z" fill="#313F9B"/>
<path d="M45.6937 10.6697H50.1236L41.7273 24.0633L38.7225 34.681H34.1037L37.1085 24.1153L36.3359 10.6697H40.7658L40.9718 18.6503L45.6937 10.6697Z" fill="#313F9B"/>
<path d="M25.3297 30.2916H30.0859L28.8324 34.681H21.6724C21.0657 34.681 20.6078 34.4612 20.2988 34.0217C20.1042 33.7441 20.0069 33.426 20.0069 33.0675C20.0069 32.8709 20.0355 32.6627 20.0927 32.4429L25.5872 13.0639C25.7933 12.3584 26.0279 11.8379 26.2912 11.5025C26.5545 11.1555 26.8407 10.93 27.1497 10.8259C27.4702 10.7218 27.7965 10.6697 28.1284 10.6697H35.649L34.3956 15.0591H29.6394L28.1799 20.1944H32.8331L30.3434 24.2194H27.0467L25.3297 30.2916Z" fill="#313F9B"/>
<path d="M19.6978 24.2194C19.7779 24.5201 19.818 24.7977 19.818 25.0522C19.818 25.1331 19.8065 25.2719 19.7837 25.4686C19.7608 25.6652 19.715 25.8849 19.6463 26.1278L18.2898 30.9335C18.0151 31.8935 17.6774 32.6453 17.2768 33.1889C16.8761 33.7325 16.4412 34.12 15.9718 34.3513C15.5025 34.5711 15.016 34.681 14.5124 34.681H5.27473L12.0913 10.6697H21.2603C21.764 10.6697 22.1932 10.797 22.5481 11.0514C22.9029 11.2943 23.1261 11.6875 23.2177 12.2312C23.2521 12.3815 23.2692 12.5492 23.2692 12.7343C23.2692 13.1969 23.1719 13.7579 22.9773 14.4171L21.5179 19.5352C21.4835 19.6739 21.4034 19.8879 21.2775 20.1771C21.1516 20.4662 20.9741 20.7612 20.7452 21.0619C20.5277 21.351 20.253 21.5766 19.921 21.7385C19.5891 21.8773 19.2628 22.0045 18.9423 22.1202C18.6218 22.2243 18.3585 22.3052 18.1525 22.3631L17.8091 22.4498L18.0666 22.606C18.2269 22.71 18.4215 22.8488 18.6504 23.0223C18.8793 23.1843 19.0911 23.3693 19.2857 23.5775C19.4803 23.7857 19.6177 23.9997 19.6978 24.2194ZM17.1909 20.1944L18.6504 15.0591H14.976L13.5165 20.1944H17.1909ZM14.3407 30.2916L16.0577 24.2194H12.3832L10.6662 30.2916H14.3407Z" fill="#313F9B"/>
<path d="M305.694 30.2916H310.45L309.196 34.681H302.036C301.43 34.681 300.972 34.4612 300.663 34.0217C300.468 33.7441 300.371 33.426 300.371 33.0675C300.371 32.8709 300.4 32.6627 300.457 32.4429L305.951 13.0639C306.157 12.3584 306.392 11.8379 306.655 11.5025C306.919 11.1555 307.205 10.93 307.514 10.8259C307.834 10.7218 308.161 10.6697 308.492 10.6697H316.013L314.76 15.0591H310.003L308.544 20.1944H313.197L310.707 24.2194H307.411L305.694 30.2916Z" fill="white"/>
<path d="M294.962 15.0591L294.19 17.7829C294.167 17.8638 294.155 17.939 294.155 18.0084C294.155 18.1819 294.218 18.3323 294.344 18.4595L299.993 23.6296C300.245 23.9071 300.371 24.2252 300.371 24.5838C300.371 24.7457 300.348 24.9134 300.302 25.0869L298.19 32.4776C298.099 32.8362 297.938 33.1832 297.709 33.5186C297.492 33.854 297.2 34.1316 296.834 34.3513C296.467 34.5711 296.021 34.681 295.494 34.681H287.63C287.138 34.681 286.812 34.519 286.652 34.1952C286.56 34.0101 286.514 33.8193 286.514 33.6227C286.514 33.4839 286.537 33.3393 286.583 33.1889L288.3 27.1341H291.975L291.082 30.2916H295.357L296.301 26.9085C296.313 26.8623 296.319 26.816 296.319 26.7698C296.319 26.6772 296.284 26.5905 296.216 26.5095L290.326 21.1139C290.132 20.9057 290.034 20.6628 290.034 20.3853C290.034 20.2696 290.052 20.1424 290.086 20.0036L292.146 12.7343C292.352 11.9941 292.644 11.4678 293.022 11.1555C293.411 10.8317 293.875 10.6697 294.413 10.6697H302.088C302.695 10.6697 303.147 10.8953 303.444 11.3463C303.605 11.5892 303.685 11.9015 303.685 12.2832C303.685 12.6186 303.622 13.0061 303.496 13.4456L302.311 17.6267H298.637L299.358 15.0591H294.962Z" fill="white"/>
<path d="M284.317 22.4672L284.437 22.5539C284.471 22.5655 284.517 22.5828 284.574 22.606C284.723 22.71 284.906 22.8431 285.124 23.005C285.341 23.1553 285.547 23.3231 285.742 23.5081C285.936 23.6932 286.074 23.8724 286.154 24.0459C286.245 24.3004 286.291 24.5664 286.291 24.844C286.291 24.9365 286.28 25.0984 286.257 25.3298C286.234 25.5495 286.16 25.8849 286.034 26.336L283.664 34.681H279.526L282.497 24.2194H278.839L275.869 34.681H271.731L278.547 10.6697H287.819C288.312 10.6697 288.724 10.7912 289.056 11.0341C289.388 11.2654 289.599 11.6528 289.691 12.1965C289.714 12.3237 289.725 12.4625 289.725 12.6128C289.725 13.0986 289.628 13.6827 289.433 14.3651L287.888 19.7954C287.831 19.9689 287.739 20.1829 287.613 20.4373C287.499 20.6802 287.35 20.9173 287.167 21.1486C286.984 21.3684 286.766 21.5419 286.514 21.6691C285.919 21.9351 285.404 22.1317 284.969 22.259L284.317 22.4672ZM283.63 20.1944L285.089 15.0591H281.432L279.973 20.1944H283.63Z" fill="white"/>
<path d="M265.996 30.2916H270.752L269.499 34.681H262.339C261.732 34.681 261.274 34.4612 260.965 34.0217C260.77 33.7441 260.673 33.426 260.673 33.0675C260.673 32.8709 260.702 32.6627 260.759 32.4429L266.253 13.0639C266.459 12.3584 266.694 11.8379 266.957 11.5025C267.221 11.1555 267.507 10.93 267.816 10.8259C268.136 10.7218 268.463 10.6697 268.795 10.6697H276.315L275.062 15.0591H270.306L268.846 20.1944H273.499L271.01 24.2194H267.713L265.996 30.2916Z" fill="white"/>
<path d="M256.69 21.6344L261.068 10.6697H265.326L255.367 34.681H251.504L251.041 10.6697H255.831L255.333 24.5838L256.69 21.6344Z" fill="white"/>
<path d="M239.897 30.2916H244.653L243.4 34.681H236.24C235.633 34.681 235.175 34.4612 234.866 34.0217C234.671 33.7441 234.574 33.426 234.574 33.0675C234.574 32.8709 234.603 32.6627 234.66 32.4429L240.155 13.0639C240.361 12.3584 240.595 11.8379 240.859 11.5025C241.122 11.1555 241.408 10.93 241.717 10.8259C242.038 10.7218 242.364 10.6697 242.696 10.6697H250.216L248.963 15.0591H244.207L242.747 20.1944H247.4L244.911 24.2194H241.614L239.897 30.2916Z" fill="white"/>
<path d="M234.402 10.6697L228.839 30.2916H233.595L232.342 34.681H225.045C224.472 34.681 224.043 34.4728 223.757 34.0564C223.574 33.8019 223.482 33.5128 223.482 33.1889C223.482 32.9923 223.511 32.7899 223.568 32.5817L229.784 10.6697H234.402Z" fill="white"/>
<path d="M224.032 10.6697H228.942L220.735 19.8821L221.851 34.681H216.94L216.15 25.0175L215.034 26.2666L212.648 34.681H208.51L215.326 10.6697H219.464L217.438 17.8176L224.032 10.6697Z" fill="white"/>
<path d="M199.375 30.2916H203.599L204.492 27.1341H208.424L207.102 31.749C206.896 32.4892 206.621 33.0733 206.277 33.5012C205.934 33.9292 205.545 34.2357 205.11 34.4207C204.686 34.5942 204.246 34.681 203.788 34.681H196.49C196.032 34.681 195.638 34.5942 195.306 34.4207C194.985 34.2357 194.768 33.9292 194.653 33.5012C194.619 33.3624 194.602 33.2005 194.602 33.0154C194.602 32.6685 194.67 32.2463 194.808 31.749L199.993 13.515C200.199 12.7979 200.468 12.2312 200.8 11.8148C201.132 11.3984 201.504 11.1035 201.916 10.93C202.34 10.7565 202.775 10.6697 203.221 10.6697H210.673C211.119 10.6697 211.497 10.7565 211.806 10.93C212.127 11.1035 212.339 11.3984 212.442 11.8148C212.476 11.9536 212.493 12.1097 212.493 12.2832C212.493 12.6302 212.424 13.0408 212.287 13.515L211.051 17.887H207.119L207.909 15.0591H203.685L199.375 30.2916Z" fill="white"/>
<path d="M188.249 30.2916H193.005L191.751 34.681H184.591C183.985 34.681 183.527 34.4612 183.218 34.0217C183.023 33.7441 182.926 33.426 182.926 33.0675C182.926 32.8709 182.954 32.6627 183.012 32.4429L188.506 13.0639C188.712 12.3584 188.947 11.8379 189.21 11.5025C189.473 11.1555 189.76 10.93 190.069 10.8259C190.389 10.7218 190.715 10.6697 191.047 10.6697H198.568L197.315 15.0591H192.558L191.099 20.1944H195.752L193.262 24.2194H189.966L188.249 30.2916Z" fill="white"/>
<path d="M168.194 34.681L175.01 10.6697H184.471C185.158 10.6697 185.673 10.9126 186.016 11.3984C186.234 11.7107 186.343 12.0692 186.343 12.474C186.343 12.6938 186.308 12.9309 186.24 13.1854L183.819 21.7038C183.624 22.3978 183.212 22.9934 182.582 23.4908C181.964 23.9765 181.312 24.2194 180.625 24.2194H175.302L172.332 34.681H168.194ZM180.11 20.1944L181.569 15.0591H177.895L176.435 20.1944H180.11Z" fill="white"/>
<path d="M160.141 10.288C160.106 10.4037 160.089 10.5078 160.089 10.6003C160.089 10.8432 160.175 11.0514 160.347 11.2249L168.571 18.7718C168.926 19.1303 169.104 19.5525 169.104 20.0383C169.104 20.2349 169.069 20.4489 169.001 20.6802L166.047 31.1244C165.807 31.9571 165.452 32.6338 164.983 33.1542C164.514 33.6747 163.981 34.0622 163.386 34.3166C162.791 34.5595 162.167 34.681 161.514 34.681H152.345C151.693 34.681 151.115 34.5537 150.611 34.2993C150.108 34.0448 149.753 33.6169 149.547 33.0154C149.467 32.7726 149.427 32.5008 149.427 32.2C149.427 31.749 149.512 31.2227 149.684 30.6213L151.641 23.751H156.947L155.144 29.8752H161.171L163.111 23.2479C163.146 23.1438 163.163 23.0397 163.163 22.9356C163.163 22.6927 163.065 22.4845 162.871 22.311L154.715 15.1805C154.349 14.822 154.166 14.3998 154.166 13.914C154.166 13.7058 154.2 13.4861 154.269 13.2548L156.981 3.73007C157.165 3.04767 157.451 2.4231 157.84 1.85636C158.241 1.28962 158.79 0.838542 159.488 0.503125C160.187 0.167709 161.102 0 162.236 0H171.027C171.702 0 172.274 0.150359 172.744 0.451078C173.225 0.751797 173.539 1.23757 173.688 1.90841C173.734 2.10503 173.757 2.32479 173.757 2.56767C173.757 3.14598 173.637 3.83995 173.396 4.64957L171.868 10.0452H166.562L168.073 4.80572H161.738L160.141 10.288ZM160.639 40.9614C162.321 40.9614 163.93 40.7243 165.464 40.25C166.997 39.7874 168.417 39.1339 169.722 38.2896H173.688C171.971 39.8857 169.997 41.1348 167.764 42.037C165.544 42.9392 163.174 43.3902 160.656 43.3902C158 43.3902 155.511 42.8929 153.187 41.8982C150.875 40.9151 148.843 39.5503 147.091 37.8038C145.34 36.0689 143.972 34.0564 142.988 31.7663C142.003 29.4762 141.505 27.0069 141.494 24.3582C141.517 22.5076 141.763 20.7612 142.232 19.1188C142.804 17.1178 143.938 14.9087 145.632 12.4914C147.337 10.0741 149.987 8.13675 153.582 6.67942L152.706 9.76757C150.062 11.2133 148.15 12.8904 146.971 14.7988C145.792 16.6957 144.997 18.3554 144.584 19.778C144.172 21.2238 143.961 22.7505 143.949 24.3582C143.949 26.6714 144.378 28.8285 145.237 30.8294C146.107 32.8188 147.303 34.5711 148.826 36.0862C150.359 37.613 152.134 38.8043 154.148 39.6602C156.174 40.5276 158.338 40.9614 160.639 40.9614Z" fill="white"/>
<path d="M124.478 30.2916H129.234L127.981 34.681H120.821C120.214 34.681 119.756 34.4612 119.447 34.0217C119.253 33.7441 119.155 33.426 119.155 33.0675C119.155 32.8709 119.184 32.6627 119.241 32.4429L124.736 13.0639C124.942 12.3584 125.176 11.8379 125.44 11.5025C125.703 11.1555 125.989 10.93 126.298 10.8259C126.619 10.7218 126.945 10.6697 127.277 10.6697H134.797L133.544 15.0591H128.788L127.328 20.1944H131.981L129.492 24.2194H126.195L124.478 30.2916Z" fill="white"/>
<path d="M116.322 20.1944L119.035 10.6697H123.173L116.356 34.681H112.218L115.189 24.2194H111.532L108.561 34.681H104.423L111.24 10.6697H115.378L112.665 20.1944H116.322Z" fill="white"/>
<path d="M94.842 34.681L100.405 15.0591H97.2287L98.4822 10.6697H109.437L108.183 15.0591H105.024L99.4609 34.681H94.842Z" fill="white"/>
<path d="M69.2239 34.681L76.0405 10.6697H85.2782C85.7704 10.6697 86.1882 10.7854 86.5316 11.0167C86.875 11.248 87.0925 11.6239 87.1841 12.1444C87.2184 12.2948 87.2356 12.4625 87.2356 12.6475C87.2356 13.0755 87.144 13.596 86.9609 14.209L82.1017 31.3499C81.7697 32.5065 81.266 33.3509 80.5907 33.8829C79.9153 34.4149 79.1369 34.681 78.2555 34.681H69.2239ZM78.2727 30.2916L82.5824 15.0591H78.9251L74.6154 30.2916H78.2727Z" fill="white"/>
<path d="M66.511 23.6296L70.1854 10.6697H73.7912L66.9746 34.681H63.3688L63.4032 23.6642L63.2143 21.1833L62.3043 23.8551L59.2308 34.681H55.625L62.4416 10.6697H66.2878L66.511 23.6296Z" fill="white"/>
<path d="M43.5199 34.681C42.9476 34.681 42.5183 34.4728 42.2321 34.0564C42.0604 33.8135 41.9746 33.5244 41.9746 33.1889C41.9746 32.9461 42.0146 32.68 42.0948 32.3909L47.5721 13.0813C47.8125 12.2254 48.1902 11.6124 48.7054 11.2423C49.2205 10.8606 49.7642 10.6697 50.3365 10.6697H58.1147C58.687 10.6697 59.122 10.8548 59.4196 11.2249C59.5799 11.4331 59.66 11.7165 59.66 12.075C59.66 12.3642 59.6085 12.6996 59.5055 13.0813L54.0282 32.3909C53.8221 33.0964 53.4558 33.6574 52.9293 34.0737C52.4141 34.4786 51.8704 34.681 51.2981 34.681H43.5199ZM50.4911 30.2916L54.8008 15.0591H51.1435L46.8338 30.2916H50.4911Z" fill="white"/>
<path d="M43.0563 10.6697H47.4863L39.09 24.0633L36.0852 34.681H31.4663L34.4712 24.1153L33.6985 10.6697H38.1284L38.3345 18.6503L43.0563 10.6697Z" fill="white"/>
<path d="M22.6923 30.2916H27.4485L26.1951 34.681H19.035C18.4283 34.681 17.9705 34.4612 17.6614 34.0217C17.4668 33.7441 17.3695 33.426 17.3695 33.0675C17.3695 32.8709 17.3981 32.6627 17.4554 32.4429L22.9499 13.0639C23.1559 12.3584 23.3906 11.8379 23.6538 11.5025C23.9171 11.1555 24.2033 10.93 24.5124 10.8259C24.8329 10.7218 25.1591 10.6697 25.4911 10.6697H33.0117L31.7582 15.0591H27.0021L25.5426 20.1944H30.1957L27.706 24.2194H24.4093L22.6923 30.2916Z" fill="white"/>
<path d="M17.0604 24.2194C17.1406 24.5201 17.1806 24.7977 17.1806 25.0522C17.1806 25.1331 17.1692 25.2719 17.1463 25.4686C17.1234 25.6652 17.0776 25.8849 17.0089 26.1278L15.6525 30.9335C15.3777 31.8935 15.0401 32.6453 14.6394 33.1889C14.2388 33.7325 13.8038 34.12 13.3345 34.3513C12.8652 34.5711 12.3787 34.681 11.875 34.681H2.63736L9.45398 10.6697H18.6229C19.1266 10.6697 19.5559 10.797 19.9107 11.0514C20.2656 11.2943 20.4888 11.6875 20.5804 12.2312C20.6147 12.3815 20.6319 12.5492 20.6319 12.7343C20.6319 13.1969 20.5346 13.7579 20.34 14.4171L18.8805 19.5352C18.8462 19.6739 18.766 19.8879 18.6401 20.1771C18.5142 20.4662 18.3368 20.7612 18.1078 21.0619C17.8903 21.351 17.6156 21.5766 17.2837 21.7385C16.9517 21.8773 16.6255 22.0045 16.3049 22.1202C15.9844 22.2243 15.7212 22.3052 15.5151 22.3631L15.1717 22.4498L15.4293 22.606C15.5895 22.71 15.7841 22.8488 16.013 23.0223C16.242 23.1843 16.4538 23.3693 16.6483 23.5775C16.8429 23.7857 16.9803 23.9997 17.0604 24.2194ZM14.5536 20.1944L16.013 15.0591H12.3386L10.8791 20.1944H14.5536ZM11.7033 30.2916L13.4203 24.2194H9.74588L8.02885 30.2916H11.7033Z" fill="white"/>
</svg>
