<svg width="40" height="40" viewBox="0 0 40 40" fill="none" xmlns="http://www.w3.org/2000/svg">
<path d="M12 18H8V24H12V18Z" fill="#B9B8CC"/>
<path d="M26 30H14V36H26V30Z" fill="#B9B8CC"/>
<path d="M18 8H22V12H18V8Z" fill="#B9B8CC"/>
<path d="M10 6H14V10H10V6Z" fill="#B9B8CC"/>
<path d="M26 6H30V10H26V6Z" fill="#B9B8CC"/>
<path d="M18 20H22V24H18V20Z" fill="#B9B8CC"/>
<path d="M32 24H8V30H32V24Z" fill="#B9B8CC"/>
<path d="M14 16L26 16L26 10L14 10L14 16Z" fill="#B9B8CC"/>
<path d="M8 20L32 20L32 16L8 16L8 20Z" fill="#B9B8CC"/>
<path d="M32 18H28V24H32V18Z" fill="#B9B8CC"/>
</svg>
