<svg width="40" height="40" viewBox="0 0 40 40" fill="none" xmlns="http://www.w3.org/2000/svg">
<path d="M12 8H8V14H12V8Z" fill="#1CBA80"/>
<path d="M12 22H8V28H12V22Z" fill="#1CBA80"/>
<path d="M12 28H8V32H12V28Z" fill="#1CBA80"/>
<path d="M18 18H12V22H18V18Z" fill="#1CBA80"/>
<path d="M22 8H18V14H22V8Z" fill="#1CBA80"/>
<path d="M22 18H18V22H22V18Z" fill="#1CBA80"/>
<path d="M24 26H16V32H24V26Z" fill="#1CBA80"/>
<path d="M32 8H28V14H32V8Z" fill="#1CBA80"/>
<path d="M32 22H28V28H32V22Z" fill="#1CBA80"/>
<path d="M32 28H28V32H32V28Z" fill="#1CBA80"/>
<path d="M28 18H22V22H28V18Z" fill="#1CBA80"/>
</svg>
