<svg width="40" height="40" viewBox="0 0 40 40" fill="none" xmlns="http://www.w3.org/2000/svg">
<path d="M12 24H8V18H12V24Z" fill="#136CFF"/>
<path d="M22 12H18V6H22V12Z" fill="#136CFF"/>
<path d="M18 34H22V30H18V34Z" fill="#136CFF"/>
<path d="M10 36H14V30H10V36Z" fill="#136CFF"/>
<path d="M26 36H30V30H26V36Z" fill="#136CFF"/>
<path d="M18 22H22V18H18V22Z" fill="#136CFF"/>
<path d="M24 18H16V12H24V18Z" fill="#136CFF"/>
<path d="M14 26L26 26L26 30L14 30L14 26Z" fill="#136CFF"/>
<path d="M8 22L32 22L32 26L8 26L8 22Z" fill="#136CFF"/>
<path d="M32 24H28V18H32V24Z" fill="#136CFF"/>
</svg>
