<svg width="40" height="40" viewBox="0 0 40 40" fill="none" xmlns="http://www.w3.org/2000/svg">
<path d="M12 8H8V12H12V8Z" fill="#FBBF24"/>
<path d="M12 12H8V18H12V12Z" fill="#FBBF24"/>
<path d="M12 28H8V32H12V28Z" fill="#FBBF24"/>
<path d="M18 22H12V28H18V22Z" fill="#FBBF24"/>
<path d="M18 28H12V32H18V28Z" fill="#FBBF24"/>
<path d="M22 12H18V18H22V12Z" fill="#FBBF24"/>
<path d="M22 18H18V22H22V18Z" fill="#FBBF24"/>
<path d="M22 22H18V28H22V22Z" fill="#FBBF24"/>
<path d="M22 28H18V32H22V28Z" fill="#FBBF24"/>
<path d="M32 8H28V12H32V8Z" fill="#FBBF24"/>
<path d="M32 12H28V18H32V12Z" fill="#FBBF24"/>
<path d="M32 28H28V32H32V28Z" fill="#FBBF24"/>
<path d="M28 22H22V28H28V22Z" fill="#FBBF24"/>
<path d="M28 28H22V32H28V28Z" fill="#FBBF24"/>
</svg>
